<svg width="50" height="41" viewBox="0 0 50 41" xmlns="http://www.w3.org/2000/svg"><title>Shape</title><path d="M45 10.092v1.262C45 25.23 34.687 41 15.625 41 9.687 41 4.375 39.423 0 36.27h2.5c4.688 0 9.375-1.578 12.813-4.416-4.376 0-8.126-3.154-9.688-7.254.625 0 1.25.315 1.875.315.938 0 1.875 0 2.813-.315-4.688-.946-8.438-5.046-8.438-10.092 1.563.63 3.125 1.26 4.688 1.26-2.813-1.89-4.375-5.045-4.375-8.83 0-1.892.624-3.784 1.25-5.046 5 6.308 12.5 10.408 21.25 10.723-.313-.63-.313-1.577-.313-2.207C24.375 4.73 29.063 0 34.688 0c2.812 0 5.624 1.262 7.5 3.154 2.187-.316 4.687-1.262 6.562-2.523-.625 2.53-2.5 4.42-4.375 5.68 1.875 0 3.75-.63 5.625-1.57-1.25 2.21-3.125 4.1-5 5.36z" fill-rule="evenodd"/></svg>