<?xml version="1.0" encoding="utf-8"?>
<svg xmlns="http://www.w3.org/2000/svg">
<symbol id="arrow-left" viewBox="0 0 24 24"><path d="M15.41 7.41L14 6l-6 6 6 6 1.41-1.41L10.83 12z"/>
</symbol>
<symbol id="arrow-right" viewBox="0 0 24 24"><path d="M10 6L8.59 7.41 13.17 12l-4.58 4.59L10 18l6-6z"/>
</symbol>
<symbol id="caret-arrow" viewBox="0 0 24 24"><path d="M7 10l5 5 5-5z"/>
</symbol>
<symbol id="caret-triangle" viewBox="0 0 24 24"><path d="M7 10l5 5 5-5z"/>
</symbol>
<symbol id="close" viewBox="0 0 24 24"><path d="M19 6.41L17.59 5 12 10.59 6.41 5 5 6.41 10.59 12 5 17.59 6.41 19 12 13.41 17.59 19 19 17.59 13.41 12z"/>
</symbol>
<symbol id="form-danger" viewBox="0 0 24 24"><path d="M12 2C6.48 2 2 6.48 2 12s4.48 10 10 10 10-4.48 10-10S17.52 2 12 2zm1 15h-2v-2h2v2zm0-4h-2V7h2v6z"/>
</symbol>
<symbol id="form-info" viewBox="0 0 24 24"><path d="M12 2C6.48 2 2 6.48 2 12s4.48 10 10 10 10-4.48 10-10S17.52 2 12 2zm1 15h-2v-6h2v6zm0-8h-2V7h2v2z"/>
</symbol>
<symbol id="form-pass" viewBox="0 0 16 16">
    <path fill="auto" fill-rule="nonzero" d="M7.714 11a3 3 0 1 1 0-6 3 3 0 0 1 0 6zm0-.857a2.143 2.143 0 1 0 0-4.286 2.143 2.143 0 0 0 0 4.286zm0 3c2.525 0 4.81-1.714 6.857-5.143-2.046-3.429-4.332-5.143-6.857-5.143C5.19 2.857 2.904 4.571.857 8c2.047 3.429 4.333 5.143 6.857 5.143zm0 .857C4.838 14 2.307 12.102.121 8.44a.857.857 0 0 1 0-.88C2.307 3.899 4.838 2 7.714 2c2.876 0 5.407 1.898 7.593 5.56a.857.857 0 0 1 0 .88C13.121 12.101 10.59 14 7.714 14z"/>

</symbol>
<symbol id="form-success" viewBox="0 0 24 24"><path d="M12 2C6.48 2 2 6.48 2 12s4.48 10 10 10 10-4.48 10-10S17.52 2 12 2zm-2 15l-5-5 1.41-1.41L10 14.17l7.59-7.59L19 8l-9 9z"/>
</symbol>
<symbol id="form-warning" viewBox="0 0 24 24"><path d="M1 21h22L12 2 1 21zm12-3h-2v-2h2v2zm0-4h-2v-4h2v4z"/>
</symbol>
<symbol id="twitter" viewBox="0 0 50 41"><title>Shape</title><path d="M45 10.092v1.262C45 25.23 34.687 41 15.625 41 9.687 41 4.375 39.423 0 36.27h2.5c4.688 0 9.375-1.578 12.813-4.416-4.376 0-8.126-3.154-9.688-7.254.625 0 1.25.315 1.875.315.938 0 1.875 0 2.813-.315-4.688-.946-8.438-5.046-8.438-10.092 1.563.63 3.125 1.26 4.688 1.26-2.813-1.89-4.375-5.045-4.375-8.83 0-1.892.624-3.784 1.25-5.046 5 6.308 12.5 10.408 21.25 10.723-.313-.63-.313-1.577-.313-2.207C24.375 4.73 29.063 0 34.688 0c2.812 0 5.624 1.262 7.5 3.154 2.187-.316 4.687-1.262 6.562-2.523-.625 2.53-2.5 4.42-4.375 5.68 1.875 0 3.75-.63 5.625-1.57-1.25 2.21-3.125 4.1-5 5.36z" fill-rule="evenodd"/>
</symbol>
<symbol id="star" viewBox="0 -10 511.98685 511"  xmlns="http://www.w3.org/2000/svg"><path d="m510.652344 185.902344c-3.351563-10.367188-12.546875-17.730469-23.425782-18.710938l-147.773437-13.417968-58.433594-136.769532c-4.308593-10.023437-14.121093-16.511718-25.023437-16.511718s-20.714844 6.488281-25.023438 16.535156l-58.433594 136.746094-147.796874 13.417968c-10.859376 1.003906-20.03125 8.34375-23.402344 18.710938-3.371094 10.367187-.257813 21.738281 7.957031 28.90625l111.699219 97.960937-32.9375 145.089844c-2.410156 10.667969 1.730468 21.695313 10.582031 28.09375 4.757813 3.4375 10.324219 5.1875 15.9375 5.1875 4.839844 0 9.640625-1.304687 13.949219-3.882813l127.46875-76.183593 127.421875 76.183593c9.324219 5.609376 21.078125 5.097657 29.910156-1.304687 8.855469-6.417969 12.992187-17.449219 10.582031-28.09375l-32.9375-145.089844 111.699219-97.941406c8.214844-7.1875 11.351563-18.539063 7.980469-28.925781zm0 0"/></symbol></svg>
