<svg xmlns="http://www.w3.org/2000/svg" width="16" height="16" viewBox="0 0 16 16">
    <path fill="auto" fill-rule="nonzero" d="M7.714 11a3 3 0 1 1 0-6 3 3 0 0 1 0 6zm0-.857a2.143 2.143 0 1 0 0-4.286 2.143 2.143 0 0 0 0 4.286zm0 3c2.525 0 4.81-1.714 6.857-5.143-2.046-3.429-4.332-5.143-6.857-5.143C5.19 2.857 2.904 4.571.857 8c2.047 3.429 4.333 5.143 6.857 5.143zm0 .857C4.838 14 2.307 12.102.121 8.44a.857.857 0 0 1 0-.88C2.307 3.899 4.838 2 7.714 2c2.876 0 5.407 1.898 7.593 5.56a.857.857 0 0 1 0 .88C13.121 12.101 10.59 14 7.714 14z"/>
</svg>
