<?xml version="1.0" encoding="UTF-8"?><svg id="uuid-912fcff5-cb72-45d0-922f-d46065cd045c" xmlns="http://www.w3.org/2000/svg" width="983" height="202" xmlns:xlink="http://www.w3.org/1999/xlink" viewBox="0 0 983 202"><defs><linearGradient id="uuid-3fddc0b5-72c2-465b-9fd2-031b7f594363" x1="7.03" y1="14.92" x2="207.51" y2="14.92" gradientUnits="userSpaceOnUse"><stop offset="0" stop-color="#d00888"/><stop offset="1" stop-color="#1274e3"/></linearGradient><linearGradient id="uuid-f22d3cae-1b32-46ae-87aa-95fc36b2b4d1" x1="7.03" y1="81.55" x2="207.51" y2="81.55" xlink:href="#uuid-3fddc0b5-72c2-465b-9fd2-031b7f594363"/><linearGradient id="uuid-21adccaa-0aeb-4301-9459-443bda87fd70" x1="7.03" y1="15.05" x2="207.51" y2="15.05" xlink:href="#uuid-3fddc0b5-72c2-465b-9fd2-031b7f594363"/><linearGradient id="uuid-6e2b75ba-a0c5-4c8c-b048-e4e8e5b16a82" x1="7.03" y1="15.32" x2="207.51" y2="15.32" xlink:href="#uuid-3fddc0b5-72c2-465b-9fd2-031b7f594363"/><linearGradient id="uuid-40a931e1-f787-4c6c-ade2-54bc0b2938f7" x1="117.87" y1="55.15" x2="118.36" y2="55.15" xlink:href="#uuid-3fddc0b5-72c2-465b-9fd2-031b7f594363"/><linearGradient id="uuid-cd768707-53a2-4850-950a-35772a739896" x1="7.03" y1="76.51" x2="207.51" y2="76.51" xlink:href="#uuid-3fddc0b5-72c2-465b-9fd2-031b7f594363"/><linearGradient id="uuid-2b60e2d3-080b-4340-8dcc-f22c7ec6fddb" x1="7.03" y1="99.39" x2="207.51" y2="99.39" xlink:href="#uuid-3fddc0b5-72c2-465b-9fd2-031b7f594363"/><linearGradient id="uuid-1e1972f3-9728-4158-b3b5-7a3f98f9e1e0" x1="8.52" y1="114.92" x2="207.51" y2="114.92" xlink:href="#uuid-3fddc0b5-72c2-465b-9fd2-031b7f594363"/></defs><path d="M121.03,14.98c.66-.08,1.32-.12,1.99-.11-.66,0-1.33,.03-1.99,.11Z" fill="url(#uuid-3fddc0b5-72c2-465b-9fd2-031b7f594363)"/><path d="M191.58,80.43c.14,.74,.21,1.49,.21,2.24,0-.75-.07-1.5-.21-2.24Z" fill="url(#uuid-f22d3cae-1b32-46ae-87aa-95fc36b2b4d1)"/><path d="M124.01,14.91c.66,.05,1.32,.15,1.97,.29-.65-.14-1.31-.24-1.97-.29Z" fill="url(#uuid-21adccaa-0aeb-4301-9459-443bda87fd70)"/><path d="M118.12,15.65h0c.95-.33,1.93-.55,2.92-.68-.99,.12-1.97,.35-2.92,.68Z" fill="url(#uuid-6e2b75ba-a0c5-4c8c-b048-e4e8e5b16a82)"/><polygon points="118.12 94.64 118.12 94.64 118.12 15.65 118.12 94.64" fill="url(#uuid-40a931e1-f787-4c6c-ade2-54bc0b2938f7)"/><path d="M189.57,75.81c.33,.45,.63,.92,.89,1.4-.25-.49-.56-.95-.89-1.4Z" fill="url(#uuid-cd768707-53a2-4850-950a-35772a739896)"/><path d="M191.58,84.92c-.14,.74-.36,1.47-.64,2.18,.29-.71,.5-1.44,.64-2.18Z" fill="#fff"/><path d="M186.59,92.44c-.63,.42-1.3,.78-1.99,1.07,.7-.29,1.36-.65,1.99-1.07Z" fill="#fff"/><path d="M190.94,78.25c.29,.71,.5,1.44,.64,2.18-.14-.74-.36-1.47-.64-2.18Z" fill="#fff"/><path d="M191.8,82.68c0,.75-.07,1.5-.21,2.24,.14-.74,.21-1.49,.21-2.24Z" fill="#fff"/><path d="M189.57,75.81c-.36-.5-.76-.99-1.21-1.44l-55.28-55.28,55.28,55.28c.45,.45,.84,.94,1.21,1.44Z" fill="#fff"/><path d="M186.59,92.44c.63-.42,1.22-.91,1.77-1.46,.86-.86,1.56-1.82,2.09-2.84-.54,1.02-1.23,1.98-2.09,2.84-.55,.55-1.14,1.04-1.77,1.46Z" fill="#fff"/><path d="M155.91,94.64h0c.29-.01,.59-.03,.88-.03l23.37-.19-23.37,.19c-.29,0-.59,.02-.88,.03Z" fill="#fff"/><path d="M48.6,130.96h0c3.07,3.07,8.05,3.07,11.12,0l4.92-4.92,4.92,4.92c3.07,3.07,8.05,3.07,11.12,0,3.07-3.07,3.07-8.05,0-11.12l-4.92-4.92,4.92-4.92c3.07-3.07,3.07-8.05,0-11.12-3.07-3.07-8.05-3.07-11.12,0l-4.92,4.92-4.92-4.92c-3.07-3.07-8.05-3.07-11.12,0h0c-3.07,3.07-3.07,8.05,0,11.12l4.92,4.92-4.92,4.92c-3.07,3.07-3.07,8.05,0,11.12Z" fill="#fff"/><path d="M264.9,92.58h44.42c2.16,0,4.03,.76,5.61,2.28,1.58,1.58,2.37,3.48,2.37,5.69v.18c0,2.22-.79,4.12-2.37,5.69-1.58,1.52-3.45,2.28-5.61,2.28h-44.42v28.39c0,3.62,1.28,6.72,3.85,9.29,2.57,2.57,5.66,3.85,9.29,3.85h31.28c2.16,0,4.03,.79,5.61,2.37s2.37,3.48,2.37,5.69v.18c0,2.22-.79,4.09-2.37,5.61-1.58,1.58-3.45,2.37-5.61,2.37h-31.28c-8.12,0-15.04-2.86-20.76-8.59-5.73-5.72-8.59-12.64-8.59-20.76V64.19c0-8.12,2.86-15.04,8.59-20.76,5.72-5.72,12.64-8.59,20.76-8.59h31.28c2.16,0,4.03,.79,5.61,2.37,1.58,1.52,2.37,3.39,2.37,5.61v.18c0,2.22-.79,4.12-2.37,5.69s-3.45,2.37-5.61,2.37h-31.28c-3.62,0-6.72,1.28-9.29,3.85-2.57,2.57-3.85,5.67-3.85,9.29v28.39Z" fill="#fff"/><path d="M347.96,158.46c0,2.22-.79,4.09-2.37,5.61-1.58,1.58-3.45,2.37-5.61,2.37h-.26c-2.16,0-4.03-.79-5.61-2.37-1.58-1.52-2.37-3.39-2.37-5.61V74.35c0-10.92,3.85-20.24,11.56-27.95,7.71-7.71,17.03-11.56,27.95-11.56,13.02,0,23.51,5.17,31.45,15.51,7.88-10.34,18.34-15.51,31.36-15.51,10.92,0,20.24,3.85,27.95,11.56s11.56,17.03,11.56,27.95v84.1c0,2.22-.76,4.09-2.28,5.61s-3.48,2.37-5.69,2.37h-.18c-2.22,0-4.09-.79-5.61-2.37-1.58-1.52-2.37-3.39-2.37-5.61V74.35c0-6.48-2.28-12-6.83-16.56-4.56-4.56-10.08-6.83-16.56-6.83s-11.91,2.28-16.47,6.83-6.83,10.08-6.83,16.56v84.1c0,2.22-.79,4.09-2.37,5.61-1.52,1.58-3.39,2.37-5.61,2.37h-.18c-2.22,0-4.12-.79-5.69-2.37-1.58-1.52-2.37-3.39-2.37-5.61V74.35c0-6.48-2.28-12-6.83-16.56s-10.05-6.83-16.47-6.83-11.91,2.28-16.47,6.83-6.83,10.08-6.83,16.56v84.1Z" fill="#fff"/><path d="M729.76,92.58h44.42c2.16,0,4.03,.76,5.61,2.28,1.58,1.58,2.37,3.48,2.37,5.69v.18c0,2.22-.79,4.12-2.37,5.69-1.58,1.52-3.45,2.28-5.61,2.28h-44.42v28.39c0,3.62,1.28,6.72,3.85,9.29,2.57,2.57,5.66,3.85,9.29,3.85h31.28c2.16,0,4.03,.79,5.61,2.37s2.37,3.48,2.37,5.69v.18c0,2.22-.79,4.09-2.37,5.61-1.58,1.58-3.45,2.37-5.61,2.37h-31.28c-8.12,0-15.04-2.86-20.76-8.59-5.73-5.72-8.59-12.64-8.59-20.76V64.19c0-8.12,2.86-15.04,8.59-20.76,5.72-5.72,12.64-8.59,20.76-8.59h31.28c2.16,0,4.03,.79,5.61,2.37,1.58,1.52,2.37,3.39,2.37,5.61v.18c0,2.22-.79,4.12-2.37,5.69s-3.45,2.37-5.61,2.37h-31.28c-3.62,0-6.72,1.28-9.29,3.85-2.57,2.57-3.85,5.67-3.85,9.29v28.39Z" fill="#fff"/><path d="M875.71,36.86c4.03,1.05,6.05,3.62,6.05,7.71v.26c0,2.57-1.05,4.67-3.15,6.31-2.05,1.58-4.32,2.04-6.83,1.4-4.09-1.05-8.24-1.58-12.44-1.58-13.67,0-25.35,4.85-35.04,14.54-9.7,9.7-14.54,21.41-14.54,35.13s4.85,25.44,14.54,35.13c9.69,9.64,21.38,14.46,35.04,14.46,4.21,0,8.35-.5,12.44-1.49,2.51-.64,4.79-.18,6.83,1.4,2.1,1.58,3.15,3.68,3.15,6.31v.18c0,4.15-2.02,6.75-6.05,7.8-5.37,1.34-10.83,2.02-16.38,2.02-18.17,0-33.67-6.42-46.52-19.27-12.85-12.85-19.27-28.36-19.27-46.52s6.42-33.67,19.27-46.52c12.85-12.85,28.35-19.27,46.52-19.27,5.55,0,11.01,.67,16.38,2.02Z" fill="#fff"/><path d="M904.89,34.84c2.16,0,4.03,.76,5.61,2.28,1.58,1.58,2.37,3.48,2.37,5.69v45.38h11.74c8.7,0,16.12-3.07,22.25-9.2,6.19-6.13,9.32-13.55,9.37-22.25v-13.93c0-2.22,.79-4.12,2.37-5.69,1.52-1.52,3.39-2.28,5.61-2.28h.26c2.16,0,4.03,.76,5.61,2.28,1.58,1.58,2.37,3.48,2.37,5.69v13.93c0,16-6.43,28.79-19.27,38.37,7.07,4.26,12.64,9.96,16.73,17.08,4.21,7.36,6.31,15.3,6.31,23.83v22.43c0,2.22-.76,4.09-2.28,5.61s-3.48,2.37-5.69,2.37h-.18c-2.22,0-4.12-.79-5.69-2.37-1.52-1.52-2.28-3.39-2.28-5.61v-22.43c-.06-8.7-3.18-16.12-9.37-22.25-6.19-6.13-13.64-9.2-22.34-9.2h-15.51v53.88c0,2.22-.79,4.09-2.37,5.61-1.58,1.58-3.45,2.37-5.61,2.37h-.26c-2.16,0-4.03-.79-5.61-2.37-1.58-1.52-2.37-3.39-2.37-5.61V42.82c0-2.22,.79-4.12,2.37-5.69,1.58-1.52,3.45-2.28,5.61-2.28h.26Z" fill="#fff"/><path d="M575.92,37.12c-1.58-1.52-3.45-2.28-5.61-2.28h-.26c-2.16,0-4.03,.76-5.61,2.28-1.58,1.58-2.37,3.48-2.37,5.69V123.77c0,7.3-2.57,13.55-7.71,18.75-5.2,5.14-11.48,7.71-18.84,7.71s-13.55-2.57-18.75-7.71c-5.14-5.2-7.71-11.45-7.71-18.75V42.82c0-2.22-.79-4.12-2.37-5.69-1.58-1.52-3.45-2.28-5.61-2.28h-.26c-2.16,0-4.03,.76-5.61,2.28-1.58,1.58-2.37,3.48-2.37,5.69V123.77c0,11.8,4.17,21.84,12.53,30.14,8.35,8.35,18.4,12.53,30.14,12.53,10.12,0,18.96-3.08,26.55-9.22,1.26-1.02,2.49-2.12,3.68-3.31,8.35-8.29,12.53-18.34,12.53-30.14V42.82c0-2.22-.79-4.12-2.37-5.69Z" fill="#fff"/><path d="M679.38,54.12c-12.85-12.85-28.36-19.27-46.52-19.27h-13.23c-2.06,0-4.01,.25-5.87,.74-3.62,.96-6.87,2.84-9.72,5.66-4.32,4.32-6.48,9.55-6.48,15.68v36.7c0,2.22,.79,4.12,2.37,5.69,1.58,1.52,3.45,2.28,5.61,2.28h.26c2.16,0,4.03-.76,5.61-2.28,1.58-1.58,2.37-3.48,2.37-5.69V56.92c0-1.64,.55-3.04,1.66-4.21,1.17-1.17,2.57-1.75,4.21-1.75h13.23c13.72,0,25.44,4.85,35.13,14.54,9.69,9.7,14.54,21.41,14.54,35.13s-4.85,25.44-14.54,35.13c-9.7,9.64-21.41,14.46-35.13,14.46h-47.19v.03c-1.97,.13-3.67,.9-5.11,2.34-1.52,1.58-2.28,3.45-2.28,5.61v.26c0,2.16,.76,4.03,2.28,5.61,1.44,1.44,3.14,2.21,5.11,2.34v.03h47.19c18.16,0,33.67-6.42,46.52-19.27,12.85-12.85,19.27-28.36,19.27-46.52s-6.43-33.67-19.27-46.52Z" fill="#fff"/><path d="M199.48,63.25L144.2,7.97C137.11,.88,127.34-1.93,118.12-.48c-5.71,.9-11.2,3.44-15.72,7.61h0c-.3,.27-.59,.55-.88,.84L15.85,93.63c-.33,.33-.64,.66-.95,1-4.14,4.53-6.64,10.02-7.51,15.72-1.41,9.18,1.41,18.9,8.47,25.96l55.28,55.28c8.44,8.44,21.05,10.22,31.26,5.36,2.74-1.31,5.31-3.09,7.58-5.36,5.13-5.13,7.98-11.95,8.04-19.2l.09-11.68v-50.36h11.77s26.53,0,26.53,0c.17,0,.33-.03,.5-.03l23.37-.19c7.25-.06,14.07-2.91,19.2-8.04,2.23-2.23,4-4.76,5.3-7.46,4.94-10.23,3.18-22.91-5.3-31.38Zm-97.08,31.38v65.95l-.09,11.69c-.03,3.1-1.25,6.01-3.44,8.21-4.58,4.58-12.03,4.58-16.61,0L26.97,125.2c-4.01-4.01-5.16-9.8-3.47-14.84,.69-2.05,1.84-3.98,3.47-5.6l10.11-10.11L102.4,29.32V94.64Zm89.19-9.72c-.14,.74-.36,1.47-.64,2.18-.14,.35-.3,.7-.48,1.04-.54,1.02-1.23,1.98-2.09,2.84-.55,.55-1.14,1.04-1.77,1.46-.63,.42-1.3,.78-1.99,1.07-1.39,.58-2.89,.89-4.44,.91l-23.37,.19c-.3,0-.59,.02-.88,.03h-37.79V15.65h0c.95-.33,1.93-.55,2.92-.68,.66-.08,1.32-.12,1.99-.11,.33,0,.66,.02,.99,.04,.66,.05,1.32,.15,1.97,.29,2.6,.57,5.08,1.87,7.1,3.89l55.28,55.28c.45,.45,.84,.94,1.21,1.44,.33,.45,.63,.92,.89,1.4,.18,.34,.34,.69,.48,1.04,.29,.71,.5,1.44,.64,2.18s.21,1.49,.21,2.24c0,.75-.07,1.5-.21,2.24Z" fill="url(#uuid-2b60e2d3-080b-4340-8dcc-f22c7ec6fddb)"/><path d="M48.6,130.96h0c3.07,3.07,8.05,3.07,11.12,0l4.92-4.92,4.92,4.92c3.07,3.07,8.05,3.07,11.12,0,3.07-3.07,3.07-8.05,0-11.12l-4.92-4.92,4.92-4.92c3.07-3.07,3.07-8.05,0-11.12-3.07-3.07-8.05-3.07-11.12,0l-4.92,4.92-4.92-4.92c-3.07-3.07-8.05-3.07-11.12,0h0c-3.07,3.07-3.07,8.05,0,11.12l4.92,4.92-4.92,4.92c-3.07,3.07-3.07,8.05,0,11.12Z" fill="url(#uuid-1e1972f3-9728-4158-b3b5-7a3f98f9e1e0)"/></svg>